<?xml version="1.0" encoding="UTF-8"?>
<svg xmlns="http://www.w3.org/2000/svg" xmlns:xlink="http://www.w3.org/1999/xlink" width="192px" height="192px" viewBox="0 0 192 192" version="1.1">
<g id="surface1">
<path style=" stroke:none;fill-rule:evenodd;fill:rgb(70.980392%,7.058824%,0%);fill-opacity:1;" d="M 40.125 45.222656 C 15.316406 49.191406 -0.910156 71.574219 1.472656 98.542969 C 4.648438 134.554688 33.683594 155.332031 66.1875 144.859375 C 85.257812 138.714844 93.785156 124.597656 94.394531 98.15625 L 94.601562 89.25 L 48.75 89.25 L 48.75 107.625 L 72.101562 107.625 L 71.875 109.277344 C 69.347656 127.722656 44.667969 131.335938 31.765625 115.152344 C 16.730469 96.296875 29.347656 65.558594 52.125 65.554688 C 58.832031 65.550781 61.6875 66.890625 68.859375 73.40625 L 73.015625 77.179688 L 80.976562 69.210938 L 88.933594 61.246094 L 86.375 58.894531 C 74.179688 47.6875 56.800781 42.550781 40.125 45.222656 M 106.875 55.871094 L 106.875 65.992188 L 149.53125 66.1875 L 127.726562 101.0625 C 115.738281 120.242188 104.367188 138.253906 102.464844 141.085938 C 100.558594 143.914062 99 146.320312 99 146.429688 C 99 146.535156 118.660156 146.625 142.6875 146.625 L 186.375 146.625 L 186.375 124.875 L 141.769531 124.875 L 144.347656 120.84375 C 145.761719 118.625 151.015625 110.230469 156.023438 102.1875 C 161.027344 94.144531 168.160156 82.753906 171.871094 76.875 C 177.925781 67.285156 189.289062 48.765625 190.449219 46.59375 L 190.902344 45.75 L 106.875 45.75 L 106.875 55.871094 "/>
</g>
</svg>
