<?xml version="1.0" encoding="UTF-8" standalone="no" ?>
<!DOCTYPE svg PUBLIC "-//W3C//DTD SVG 1.1//EN" "http://www.w3.org/Graphics/SVG/1.1/DTD/svg11.dtd">
<svg xmlns="http://www.w3.org/2000/svg" xmlns:xlink="http://www.w3.org/1999/xlink" version="1.1" width="192" height="192" viewBox="0 0 192 192" xml:space="preserve">
<desc>Created with Fabric.js 5.3.0</desc>
<defs>
</defs>
<g transform="matrix(1 0 0 1 96 96)" id="-cKVAbXVVq25_LXLttPYH"  >
<g style=""   >
		<g transform="matrix(1 0 0 1 0.205581314 -0.0092792076)" id="kSYQoKrdlhIsE_E7NhmRb"  >
<path style="stroke: none; stroke-width: 1; stroke-dasharray: none; stroke-linecap: butt; stroke-dashoffset: 0; stroke-linejoin: miter; stroke-miterlimit: 4; fill: rgb(178,17,0); fill-rule: evenodd; opacity: 1;"  transform=" translate(-96.205581314, -95.9907207924)" d="M 42.546875 44.640625 C -19.941406 51.78125 -8.160156 153.128906 54.496094 147.449219 C 81.261719 145.019531 93.933594 129.332031 94.765625 97.59375 L 94.984375 89.25 L 48.75 89.25 L 48.75 107.625 L 60.375 107.625 C 66.769531 107.625 72 107.757812 72 107.921875 C 72 125.714844 46.640625 131.230469 33.046875 116.394531 C 8.585938 89.703125 43.496094 49.285156 69.476562 74.214844 C 71.5 76.15625 73.285156 77.589844 73.441406 77.402344 C 73.601562 77.214844 75.164062 75.460938 76.914062 73.5 C 78.664062 71.539062 81.929688 67.859375 84.171875 65.324219 L 88.246094 60.710938 L 86.238281 58.675781 C 76.183594 48.492188 58.507812 42.816406 42.546875 44.640625 M 106.5 56.0625 L 106.5 66.375 L 127.6875 66.375 C 139.339844 66.375 148.875 66.476562 148.875 66.601562 C 148.875 66.722656 146.957031 69.886719 144.613281 73.632812 C 142.269531 77.375 132.929688 92.335938 123.855469 106.875 C 114.785156 121.414062 105.394531 136.316406 102.992188 139.988281 C 100.589844 143.660156 98.625 146.738281 98.625 146.832031 C 98.625 146.925781 118.453125 147 142.6875 147 L 186.75 147 L 186.75 124.875 L 164.625 124.875 C 152.457031 124.875 142.5 124.773438 142.5 124.648438 C 142.5 124.382812 145.996094 118.707031 155.054688 104.25 C 158.609375 98.578125 164.472656 89.210938 168.082031 83.4375 C 171.691406 77.664062 175.566406 71.503906 176.695312 69.75 C 178.628906 66.75 185.71875 55.085938 189.519531 48.65625 L 191.238281 45.75 L 106.5 45.75 L 106.5 56.0625" stroke-linecap="round" />
</g>
		<g transform="matrix(1 0 0 1 0.205581314 -0.0092792076)" id="9uHuT77vPIuYuQIjQi29c"  >
<path style="stroke: none; stroke-width: 1; stroke-dasharray: none; stroke-linecap: butt; stroke-dashoffset: 0; stroke-linejoin: miter; stroke-miterlimit: 4; fill: rgb(178,17,0); fill-rule: evenodd; opacity: 1;"  transform=" translate(-96.205581314, -95.9907207924)" d="M 42.546875 44.640625 C -19.941406 51.78125 -8.160156 153.128906 54.496094 147.449219 C 81.261719 145.019531 93.933594 129.332031 94.765625 97.59375 L 94.984375 89.25 L 48.75 89.25 L 48.75 107.625 L 60.375 107.625 C 66.769531 107.625 72 107.757812 72 107.921875 C 72 125.714844 46.640625 131.230469 33.046875 116.394531 C 8.585938 89.703125 43.496094 49.285156 69.476562 74.214844 C 71.5 76.15625 73.285156 77.589844 73.441406 77.402344 C 73.601562 77.214844 75.164062 75.460938 76.914062 73.5 C 78.664062 71.539062 81.929688 67.859375 84.171875 65.324219 L 88.246094 60.710938 L 86.238281 58.675781 C 76.183594 48.492188 58.507812 42.816406 42.546875 44.640625 M 106.5 56.0625 L 106.5 66.375 L 127.6875 66.375 C 139.339844 66.375 148.875 66.476562 148.875 66.601562 C 148.875 66.722656 146.957031 69.886719 144.613281 73.632812 C 142.269531 77.375 132.929688 92.335938 123.855469 106.875 C 114.785156 121.414062 105.394531 136.316406 102.992188 139.988281 C 100.589844 143.660156 98.625 146.738281 98.625 146.832031 C 98.625 146.925781 118.453125 147 142.6875 147 L 186.75 147 L 186.75 124.875 L 164.625 124.875 C 152.457031 124.875 142.5 124.773438 142.5 124.648438 C 142.5 124.382812 145.996094 118.707031 155.054688 104.25 C 158.609375 98.578125 164.472656 89.210938 168.082031 83.4375 C 171.691406 77.664062 175.566406 71.503906 176.695312 69.75 C 178.628906 66.75 185.71875 55.085938 189.519531 48.65625 L 191.238281 45.75 L 106.5 45.75 L 106.5 56.0625" stroke-linecap="round" />
</g>
</g>
</g>
</svg>